<svg width="96" height="96" viewBox="0 0 96 96" fill="none" xmlns="http://www.w3.org/2000/svg">
  <rect x="24" y="24" width="48" height="48" rx="24" fill="black"/>
  <path fill-rule="evenodd" clip-rule="evenodd" d="M34.442 33.3881L41.75 35.0454C41.84 35.0622 41.902 35.1409 41.902 35.2307V60.915C41.902 61.005 41.835 61.089 41.745 61.106L34.436 62.612C34.313 62.64 34.2 62.544 34.2 62.421V33.5791C34.2 33.4555 34.318 33.36 34.442 33.3881ZM61.559 33.3881L54.25 35.0454C54.16 35.0622 54.098 35.1409 54.098 35.2307V60.915C54.098 61.005 54.166 61.089 54.256 61.106L61.564 62.612C61.688 62.64 61.8 62.544 61.8 62.421V33.5791C61.8 33.4555 61.682 33.36 61.559 33.3881ZM51.851 44.2249V51.5898V51.7583H51.683H44.318H44.149V51.5898V44.2249V44.0563H44.318H51.683H51.851V44.2249Z" fill="white"/>
  <path fill-rule="evenodd" clip-rule="evenodd" d="M41.119 35.7051L34.983 34.3138V61.7L41.119 60.436V35.7051ZM54.881 35.7051V60.436L61.017 61.7V34.3138L54.881 35.7051ZM41.75 35.0454C41.84 35.0622 41.902 35.1409 41.902 35.2307V60.915C41.902 61.005 41.835 61.089 41.745 61.106L34.436 62.612C34.313 62.64 34.2 62.544 34.2 62.421V33.5791C34.2 33.4555 34.318 33.36 34.442 33.3881L41.75 35.0454ZM61.564 62.612L54.256 61.106C54.166 61.089 54.098 61.005 54.098 60.915V35.2307C54.098 35.1409 54.16 35.0622 54.25 35.0454L61.559 33.3881C61.682 33.36 61.8 33.4555 61.8 33.5791V62.421C61.8 62.544 61.688 62.64 61.564 62.612ZM50.068 50.9753V44.8394H43.932V50.9753H50.068ZM44.149 51.7583V44.0563H51.851V51.7583H44.149Z" fill="white"/>
</svg>
